HIERARCHY
ROOT root
{
	OFFSET 0.000000 0.000000 0.000000
	CHANNELS 6 Xposition Yposition Zposition Zrotation Yrotation Xrotation
	JOINT lhip
	{
		OFFSET 0.058581 -0.082280 -0.017664
		CHANNELS 3 Zrotation Yrotation Xrotation
		JOINT lknee
		{
			OFFSET 0.043451 -0.386469 0.008037
			CHANNELS 3 Zrotation Yrotation Xrotation
			JOINT lankle
			{
				OFFSET -0.014790 -0.426874 -0.037428
				CHANNELS 3 Zrotation Yrotation Xrotation
				JOINT ltoe
				{
					OFFSET 0.041054 -0.060286 0.122042
					CHANNELS 3 Zrotation Yrotation Xrotation
					End Site
					{
						OFFSET 0.000000 0.000000 0.000000
					}
				}
			}
		}
	}
	JOINT rhip
	{
		OFFSET -0.060310 -0.090513 -0.013543
		CHANNELS 3 Zrotation Yrotation Xrotation
		JOINT rknee
		{
			OFFSET -0.043257 -0.383688 -0.004843
			CHANNELS 3 Zrotation Yrotation Xrotation
			JOINT rankle
			{
				OFFSET 0.019056 -0.420046 -0.034562
				CHANNELS 3 Zrotation Yrotation Xrotation
				JOINT rtoe
				{
					OFFSET -0.034840 -0.062106 0.130323
					CHANNELS 3 Zrotation Yrotation Xrotation
					End Site
					{
						OFFSET 0.000000 0.000000 0.000000
					}
				}
			}
		}
	}
	JOINT lowerback
	{
		OFFSET 0.004439 0.124404 -0.038385
		CHANNELS 3 Zrotation Yrotation Xrotation
		JOINT upperback
		{
			OFFSET 0.004488 0.137956 0.026820
			CHANNELS 3 Zrotation Yrotation Xrotation
			JOINT chest
			{
				OFFSET -0.002265 0.056032 0.002855
				CHANNELS 3 Zrotation Yrotation Xrotation
				JOINT lowerneck
				{
					OFFSET -0.013390 0.211636 -0.033468
					CHANNELS 3 Zrotation Yrotation Xrotation
					JOINT upperneck
					{
						OFFSET 0.010113 0.088937 0.050410
						CHANNELS 3 Zrotation Yrotation Xrotation
						End Site
						{
							OFFSET 0.000000 0.000000 0.000000
						}
					}
				}
				JOINT lclavicle
				{
					OFFSET 0.071702 0.114000 -0.018898
					CHANNELS 3 Zrotation Yrotation Xrotation
					JOINT lshoulder
					{
						OFFSET 0.122921 0.045205 -0.019046
						CHANNELS 3 Zrotation Yrotation Xrotation
						JOINT lelbow
						{
							OFFSET 0.255332 -0.015649 -0.022946
							CHANNELS 3 Zrotation Yrotation Xrotation
							JOINT lwrist
							{
								OFFSET 0.265709 0.012698 -0.007375
								CHANNELS 3 Zrotation Yrotation Xrotation
								End Site
								{
									OFFSET 0.000000 0.000000 0.000000
								}
							}
						}
					}
				}
				JOINT rclavicle
				{
					OFFSET -0.082954 0.112472 -0.023707
					CHANNELS 3 Zrotation Yrotation Xrotation
					JOINT rshoulder
					{
						OFFSET -0.113228 0.046853 -0.008472
						CHANNELS 3 Zrotation Yrotation Xrotation
						JOINT relbow
						{
							OFFSET -0.260127 -0.014369 -0.031269
							CHANNELS 3 Zrotation Yrotation Xrotation
							JOINT rwrist
							{
								OFFSET -0.269108 0.006794 -0.006027
								CHANNELS 3 Zrotation Yrotation Xrotation
								End Site
								{
									OFFSET 0.000000 0.000000 0.000000
								}
							}
						}
					}
				}
			}
		}
	}
}
MOTION
Frames: 5
Frame Time: 0.033333
-0.149614 0.228441 0.933648 96.108102 1.647954 89.246475 9.110485 -7.733973 -38.891116 0.290840 2.726348 51.986655 -2.086765 -0.967155 -14.400183 0.000000 -0.000000 0.000000 -4.903683 3.144137 -35.706487 -7.920541 -4.790337 51.319634 1.731021 -1.407483 -13.517138 0.000000 -0.000000 0.000000 4.182387 0.974341 46.021727 0.634961 -3.032785 9.019800 4.908745 2.285450 -1.083823 -5.056904 10.461731 -10.759071 5.947188 15.875445 -25.147345 12.933663 -27.189451 -18.116558 -64.748611 -37.210522 0.563091 153.487588 -43.689685 -102.468866 3.562952 -1.464799 -12.982350 -20.291466 28.825672 -16.609521 74.083861 41.358644 11.323026 -149.986547 44.769892 -91.036341 26.725266 -7.125548 24.114911 
-0.149197 0.228883 0.934638 96.059298 1.481118 89.336567 8.928278 -7.763520 -38.927880 0.256799 2.875251 52.067707 -1.583886 -0.904642 -14.508656 0.000000 -0.000000 0.000000 -5.149808 3.016194 -35.729838 -7.565840 -4.502261 51.218368 1.475970 -1.538878 -13.416462 0.000000 -0.000000 0.000000 4.305246 0.545790 46.281508 0.632321 -3.433064 8.834878 4.622923 2.484514 -0.787712 -3.725987 6.728958 -9.201766 7.749222 14.159736 -26.048058 11.824586 -26.840708 -16.917841 -66.436598 -34.374747 2.518719 153.973985 -48.169770 -104.984072 3.993658 -0.434072 -15.985807 -21.654844 29.151727 -17.423331 73.279110 43.760807 10.550738 -151.860235 40.923692 -92.930328 25.745435 -8.748195 25.921070 
-0.149611 0.230003 0.935165 95.710540 1.350404 89.462534 9.011143 -7.902516 -39.062364 0.479557 3.535122 52.147069 -1.468037 -1.066904 -14.516303 0.000000 -0.000000 0.000000 -5.273942 2.843174 -35.976176 -7.588390 -4.286681 51.240618 1.538392 -1.244310 -13.194918 0.000000 -0.000000 0.000000 4.526374 -0.059351 47.003096 0.170983 -3.613600 8.540396 4.171553 2.549205 -0.741920 -1.581296 2.707103 -7.705049 9.747291 12.771179 -26.733531 10.591789 -26.617641 -15.632270 -68.601311 -32.067183 4.296509 157.001471 -49.993594 -108.451755 1.586836 -1.039744 -19.639140 -24.262677 29.375450 -18.948346 71.099510 46.931781 8.305382 -150.437429 37.315892 -90.724299 22.536133 -9.698484 29.836944 
-0.150719 0.230891 0.935123 95.653068 1.377373 89.719473 8.981004 -7.764161 -39.484372 0.496526 3.535992 52.184351 -1.348202 -1.096255 -14.415596 0.000000 -0.000000 0.000000 -5.214320 2.357768 -36.387606 -7.559325 -4.039375 51.181538 1.632686 -0.931911 -12.977552 0.000000 -0.000000 0.000000 4.644189 -0.586313 47.710985 0.100978 -3.698118 8.301323 4.187769 2.512698 -0.722242 -0.024703 -0.751196 -6.855533 11.455993 11.863395 -27.187325 10.339470 -25.688140 -15.658707 -70.259691 -32.435485 5.901260 160.544281 -48.375830 -111.449977 3.393479 -0.320307 -22.504508 -25.678113 28.739504 -19.886366 70.038205 48.118635 6.993601 -147.434163 37.409191 -87.032303 19.822838 -11.034274 33.977174 
-0.151359 0.231192 0.935231 95.879220 1.477748 90.039119 8.953342 -7.554339 -39.940437 0.435321 3.262019 52.160643 -1.334568 -1.256504 -14.231341 0.000000 -0.000000 0.000000 -5.224121 2.153839 -36.699590 -7.747211 -4.299474 51.130245 1.766996 -0.635986 -12.785392 0.000000 -0.000000 0.000000 4.652937 -1.202781 48.378140 0.380713 -3.827645 8.004314 4.568587 2.749167 -0.876124 0.243663 -3.249294 -5.964959 13.120692 10.752651 -27.504812 11.572536 -24.344385 -17.154254 -70.745662 -34.980820 6.240087 162.488700 -44.962899 -111.942937 4.736781 0.725976 -22.735984 -25.448600 28.409467 -19.619870 71.758217 46.775899 7.566068 -143.833743 40.451194 -83.824026 22.024543 -11.987910 34.128103 
